<svg id="Capa_1" enable-background="new 0 0 510 510" height="512" viewBox="0 0 510 510" width="512" xmlns="http://www.w3.org/2000/svg" xmlns:xlink="http://www.w3.org/1999/xlink"><linearGradient id="lg1"><stop offset="0" stop-color="#cdec7a"/><stop offset=".34" stop-color="#c1ea76"/><stop offset=".9563" stop-color="#a1e66b"/><stop offset="1" stop-color="#9ee66a"/></linearGradient><linearGradient id="SVGID_1_" gradientUnits="userSpaceOnUse" x1="65.52" x2="89.97" xlink:href="#lg1" y1="228.473" y2="228.473"/><linearGradient id="SVGID_2_" gradientTransform="matrix(-1 0 0 1 777.828 -116.083)" gradientUnits="userSpaceOnUse" x1="333.348" x2="357.798" xlink:href="#lg1" y1="344.556" y2="344.556"/><linearGradient id="SVGID_3_" gradientUnits="userSpaceOnUse" x1="81.168" x2="333.003" xlink:href="#lg1" y1="116.26" y2="278.825"/><linearGradient id="SVGID_4_" gradientUnits="userSpaceOnUse" x1="280.503" x2="233.284" y1="357.094" y2="143.55"><stop offset="0" stop-color="#9ee66a" stop-opacity="0"/><stop offset=".3088" stop-color="#7cd861" stop-opacity=".309"/><stop offset=".9882" stop-color="#27b44b" stop-opacity=".988"/><stop offset="1" stop-color="#25b34b"/></linearGradient><linearGradient id="SVGID_5_" gradientUnits="userSpaceOnUse" x1="340.182" x2="205.807" y1="196.645" y2="262.423"><stop offset="0" stop-color="#9ee66a" stop-opacity="0"/><stop offset=".1524" stop-color="#93e267" stop-opacity=".152"/><stop offset=".4172" stop-color="#77d660" stop-opacity=".417"/><stop offset=".7603" stop-color="#49c254" stop-opacity=".76"/><stop offset="1" stop-color="#25b34b"/></linearGradient><linearGradient id="lg2"><stop offset="0" stop-color="#8a7889"/><stop offset="1" stop-color="#6e566e"/></linearGradient><linearGradient id="SVGID_6_" gradientUnits="userSpaceOnUse" x1="216.997" x2="277.681" xlink:href="#lg2" y1="393.909" y2="454.594"/><linearGradient id="SVGID_7_" gradientTransform="matrix(.707 -.707 .707 .707 115.56 47.541)" gradientUnits="userSpaceOnUse" x1="-229.411" x2="-229.411" xlink:href="#lg2" y1="261.46" y2="307.008"/><linearGradient id="SVGID_8_" gradientTransform="matrix(.707 -.707 .707 .707 115.56 47.541)" gradientUnits="userSpaceOnUse" x1="-287.671" x2="-263.222" xlink:href="#lg2" y1="282.64" y2="282.64"/><linearGradient id="SVGID_9_" gradientTransform="matrix(-.707 -.707 -.707 .707 215.027 47.541)" gradientUnits="userSpaceOnUse" x1="-356.275" x2="-356.275" xlink:href="#lg2" y1="134.596" y2="180.144"/><linearGradient id="SVGID_10_" gradientTransform="matrix(-.707 -.707 -.707 .707 215.027 47.541)" gradientUnits="userSpaceOnUse" x1="-414.536" x2="-390.086" xlink:href="#lg2" y1="155.775" y2="155.775"/><linearGradient id="SVGID_11_" gradientUnits="userSpaceOnUse" x1="154.372" x2="355.628" xlink:href="#lg2" y1="366.158" y2="366.158"/><linearGradient id="lg3"><stop offset="0" stop-color="#ffd945"/><stop offset=".3043" stop-color="#ffcd3e"/><stop offset=".8558" stop-color="#ffad2b"/><stop offset="1" stop-color="#ffa325"/></linearGradient><linearGradient id="SVGID_12_" gradientUnits="userSpaceOnUse" x1="191.7" x2="309.631" xlink:href="#lg3" y1="302.858" y2="420.79"/><linearGradient id="SVGID_13_" gradientTransform="matrix(-1 0 0 -1 -554 -8002)" gradientUnits="userSpaceOnUse" x1="-868.347" x2="-757.781" xlink:href="#lg3" y1="-8427.506" y2="-8316.94"/><linearGradient id="SVGID_14_" gradientUnits="userSpaceOnUse" x1="238.165" x2="269.53" xlink:href="#lg3" y1="349.323" y2="380.688"/><linearGradient id="SVGID_15_" gradientUnits="userSpaceOnUse" x1="240.971" x2="269.029" xlink:href="#lg2" y1="366.158" y2="366.158"/><linearGradient id="SVGID_16_" gradientUnits="userSpaceOnUse" x1="215.376" x2="294.624" xlink:href="#lg2" y1="319.207" y2="319.207"/><linearGradient id="SVGID_17_" gradientUnits="userSpaceOnUse" x1="264.324" x2="323.87" xlink:href="#lg2" y1="392.706" y2="392.706"/><linearGradient id="SVGID_18_" gradientUnits="userSpaceOnUse" x1="186.13" x2="245.676" xlink:href="#lg2" y1="392.706" y2="392.706"/><linearGradient id="SVGID_19_" gradientTransform="matrix(-1 0 0 1 510 0)" gradientUnits="userSpaceOnUse" x1="229.574" x2="305.302" xlink:href="#lg2" y1="164.125" y2="239.854"/><linearGradient id="SVGID_20_" gradientUnits="userSpaceOnUse" x1="230.353" x2="303.76" xlink:href="#lg2" y1="164.905" y2="238.312"/><linearGradient id="SVGID_21_" gradientUnits="userSpaceOnUse" x1="247.938" x2="260.873" y1="124.583" y2="243.586"><stop offset="0" stop-color="#f9f7fc"/><stop offset="1" stop-color="#f0ddfc"/></linearGradient><linearGradient id="lg4"><stop offset="0" stop-color="#fff" stop-opacity="0"/><stop offset="1" stop-color="#fff"/></linearGradient><linearGradient id="SVGID_22_" gradientUnits="userSpaceOnUse" x1="268.676" x2="271.243" xlink:href="#lg4" y1="210.041" y2="123.189"/><linearGradient id="SVGID_23_" gradientUnits="userSpaceOnUse" x1="384.628" x2="259.687" xlink:href="#lg4" y1="190.658" y2="182.51"/><linearGradient id="SVGID_24_" gradientTransform="matrix(-1 0 0 -1 510 -772.667)" gradientUnits="userSpaceOnUse" x1="252.996" x2="256.667" xlink:href="#lg1" y1="-857.048" y2="-823.281"/><g><g><path d="m83.114 300.439h-18.366c-14.624 0-26.479-11.855-26.479-26.479v-90.973c0-14.624 11.855-26.479 26.479-26.479h18.366c9.485 0 17.174 7.689 17.174 17.174v109.583c0 9.484-7.689 17.174-17.174 17.174z" fill="url(#SVGID_1_)"/><path d="m426.886 300.439h18.366c14.624 0 26.479-11.855 26.479-26.479v-90.973c0-14.624-11.855-26.479-26.479-26.479h-18.366c-9.485 0-17.174 7.689-17.174 17.174v109.583c0 9.484 7.689 17.174 17.174 17.174z" fill="url(#SVGID_2_)"/></g><path d="m255 456.945c-95.936 0-173.708-77.772-173.708-173.708v-109.53c0-95.935 77.772-173.707 173.708-173.707 95.936 0 173.708 77.772 173.708 173.708v109.53c0 95.936-77.772 173.707-173.708 173.707z" fill="url(#SVGID_3_)"/><path d="m81.292 220.601v42.317l192.96 192.96c86.875-9.58 154.455-83.212 154.455-172.64v-62.637z" fill="url(#SVGID_4_)"/><path d="m255 0v456.945c95.936 0 173.708-77.772 173.708-173.708v-109.53c0-95.935-77.772-173.707-173.708-173.707z" fill="url(#SVGID_5_)"/><path d="m162.906 431.946c26.699 16.728 58.264 26.409 92.094 26.409 33.83 0 65.395-9.681 92.094-26.409-21.767-23.079-54.93-37.83-92.094-37.83s-70.327 14.751-92.094 37.83z" fill="url(#SVGID_6_)"/><g><g><path d="m202.062 404.658-53.821 53.821-43.906-43.907 53.821-53.821z" fill="url(#SVGID_7_)"/><path d="m175.331 489.258-12.987 12.987c-10.341 10.341-27.106 10.341-37.447 0l-64.328-64.328c-10.341-10.341-10.341-27.106 0-37.447l12.987-12.987c6.707-6.707 17.581-6.707 24.288 0l77.487 77.487c6.707 6.707 6.707 17.581 0 24.288z" fill="url(#SVGID_8_)"/></g><g><path d="m307.938 404.658 53.821 53.821 43.906-43.907-53.821-53.821z" fill="url(#SVGID_9_)"/><path d="m334.669 489.258 12.987 12.987c10.341 10.341 27.106 10.341 37.447 0l64.328-64.328c10.341-10.341 10.341-27.106 0-37.447l-12.987-12.987c-6.707-6.707-17.581-6.707-24.288 0l-77.487 77.487c-6.707 6.707-6.707 17.581 0 24.288z" fill="url(#SVGID_10_)"/></g></g><g><circle cx="255" cy="366.158" fill="url(#SVGID_11_)" r="100.628"/><circle cx="255" cy="366.158" fill="url(#SVGID_12_)" r="84.158"/><circle cx="255" cy="366.158" fill="url(#SVGID_13_)" r="78.902"/><circle cx="255" cy="366.158" fill="url(#SVGID_14_)" r="22.383"/><g><circle cx="255" cy="366.158" fill="url(#SVGID_15_)" r="14.029"/><path d="m294.075 314.754-12.121 23.698c-1.43 2.796-5 3.501-7.517 1.624-.017-.013-.034-.025-.05-.038-5.408-4.03-12.116-6.402-19.386-6.402s-13.978 2.372-19.386 6.402c-.017.013-.034.025-.05.038-2.517 1.877-6.088 1.172-7.517-1.624l-12.121-23.698c-1.167-2.281-.424-5.086 1.727-6.477 10.748-6.949 23.568-10.988 37.347-10.988s26.599 4.04 37.347 10.988c2.151 1.391 2.893 4.196 1.727 6.477z" fill="url(#SVGID_16_)"/><g><path d="m323.87 366.158c0 26.971-15.501 50.312-38.089 61.629-2.305 1.155-5.116.381-6.492-1.798l-14.2-22.495c-1.678-2.659-.473-6.105 2.429-7.315.019-.008.038-.016.057-.024 11.708-4.923 19.947-16.503 19.947-29.997 0-1.122-.051-2.245-.179-3.367-.002-.021-.004-.042-.006-.063-.311-3.124 2.123-5.823 5.256-5.627l26.536 1.665c2.579.162 4.598 2.263 4.693 4.846.032.846.048 1.695.048 2.546z" fill="url(#SVGID_17_)"/><path d="m244.911 403.494-14.2 22.495c-1.376 2.18-4.188 2.953-6.492 1.798-22.588-11.317-38.089-34.657-38.089-61.629 0-.852.016-1.701.047-2.546.095-2.582 2.114-4.684 4.693-4.846l26.536-1.665c3.133-.197 5.567 2.503 5.256 5.627-.002.021-.004.042-.006.063-.128 1.122-.179 2.245-.179 3.367 0 13.493 8.239 25.074 19.947 29.997.019.008.038.016.057.024 2.903 1.21 4.108 4.656 2.43 7.315z" fill="url(#SVGID_18_)"/></g></g></g><g><path d="m446.226 154.849v69.405c0 28.299-22.787 51.239-50.895 51.239h-39.979c-13.498 0-26.444-5.398-35.988-15.008l-3.166-3.188c-33.798-34.027-88.596-34.027-122.394 0l-3.166 3.188c-9.545 9.609-22.49 15.008-35.988 15.008h-39.979c-28.109 0-50.895-22.94-50.895-51.239v-69.405c0-28.299 22.787-51.239 50.895-51.239h280.661c28.107 0 50.894 22.941 50.894 51.239z" fill="url(#SVGID_19_)"/><path d="m69.279 156.074v66.955c0 27.299 22.131 49.43 49.43 49.43h38.828c13.11 0 25.682-5.208 34.952-14.478l3.075-3.075c32.825-32.825 86.046-32.825 118.871 0l3.075 3.075c9.27 9.27 21.843 14.478 34.952 14.478h38.828c27.299 0 49.43-22.131 49.43-49.43v-66.955c0-27.299-22.131-49.43-49.43-49.43h-272.581c-27.3 0-49.43 22.131-49.43 49.43z" fill="url(#SVGID_20_)"/><path d="m348.918 251.997c-9.095 0-17.646-3.335-24.077-9.392l-2.963-2.791c-17.864-16.822-41.615-26.087-66.879-26.087s-49.014 9.265-66.879 26.087l-2.963 2.791c-6.431 6.057-14.981 9.392-24.077 9.392h-37.416c-18.776 0-34.05-14.385-34.05-32.065v-60.761c0-17.68 15.274-32.065 34.05-32.065h262.669c18.776 0 34.05 14.385 34.05 32.065v60.761c0 17.68-15.275 32.065-34.05 32.065z" fill="url(#SVGID_21_)"/><path d="m420.384 219.932v-60.761c0-17.68-15.275-32.065-34.05-32.065h-139.274l-131.61 123.942c2.633.617 5.383.949 8.216.949h37.416c9.095 0 17.646-3.335 24.077-9.392l2.963-2.791c17.864-16.822 41.615-26.087 66.879-26.087s49.014 9.265 66.879 26.087l2.963 2.791c6.431 6.057 14.981 9.392 24.077 9.392h37.416c18.774 0 34.048-14.385 34.048-32.065z" fill="url(#SVGID_22_)"/><path d="m420.382 159.17v60.758c0 .601-.014 1.202-.054 1.804-.991 16.846-15.851 30.264-33.997 30.264h-37.407c-9.1 0-17.657-3.339-24.082-9.389l-2.961-2.788c-1.263-1.19-2.554-2.328-3.871-3.428-11.477-9.696-25.06-16.488-39.756-19.967l94.834-89.321h13.243c18.784-.001 34.051 14.389 34.051 32.067z" fill="url(#SVGID_23_)"/></g><path d="m214.907 48.563h80.185c8.217 0 14.879 6.662 14.879 14.879v5.01c0 8.217-6.662 14.879-14.879 14.879h-80.185c-8.217 0-14.879-6.662-14.879-14.879v-5.01c0-8.218 6.662-14.879 14.879-14.879z" fill="url(#SVGID_24_)"/></g></svg>